<svg width="200" height="44" viewBox="0 0 200 44" fill="none" xmlns="http://www.w3.org/2000/svg">
<path d="M55.5762 17.836C54.7638 17.4277 53.7268 17.2207 52.49 17.2207H45.9604V32.5719H48.916V26.6844H52.49C53.7556 26.6844 54.8099 26.466 55.6223 26.0349C56.3868 25.6522 57.0176 25.0515 57.4333 24.3104C57.8183 23.5718 58.0173 22.7522 58.0132 21.9213C58.0092 21.0903 57.8024 20.2726 57.4102 19.5377C56.9887 18.7988 56.3487 18.205 55.5762 17.836ZM54.3836 23.6628C53.9688 24.073 53.2716 24.2819 52.3152 24.2819H48.916V19.6232H52.3152C53.2755 19.6232 53.9668 19.8302 54.3836 20.2423C54.8003 20.6544 55.0116 21.2337 55.0116 21.963C55.0116 22.6923 54.8003 23.2507 54.3836 23.6628Z" fill="#1B2022"/>
<path d="M63.713 22.0218C63.0876 22.3974 62.5611 22.9142 62.1766 23.5297L61.9308 21.6533H59.2959V32.5718H62.2515V27.5902C62.2515 26.7812 62.3859 26.143 62.649 25.691C62.8918 25.2588 63.2787 24.9232 63.7437 24.7414C64.2617 24.5497 64.8115 24.4556 65.3645 24.4642H66.2287V21.3875H66.1558C65.2977 21.3698 64.4516 21.5895 63.713 22.0218Z" fill="#1B2022"/>
<path d="M76.4976 21.6533L73.3615 29.1191L70.3733 21.6989L70.3541 21.6533H67.1431L71.443 31.8558H72.0402L69.5129 37.3521H72.6586L79.6433 21.6533H76.4976Z" fill="#1B2022"/>
<path d="M87.2712 26.4696C86.6336 26.2588 85.9269 26.0651 85.1587 25.8998C84.5839 25.7799 84.0219 25.6063 83.4802 25.3813C83.0808 25.2047 82.8849 24.9768 82.8849 24.6862C82.8862 24.5453 82.9234 24.407 82.9933 24.2841C83.0631 24.1613 83.1632 24.0578 83.2843 23.9835C83.6373 23.7696 84.0483 23.6681 84.4616 23.693C85.4852 23.693 86.0594 24.0728 86.215 24.8325L86.2265 24.8895H89.0265L89.015 24.8097C88.9613 24.3215 88.8099 23.8487 88.5695 23.4189C88.3292 22.9891 88.0047 22.611 87.615 22.3065C86.8353 21.7064 85.7829 21.4006 84.4827 21.4006C83.0808 21.4006 81.9746 21.7368 81.1949 22.3958C80.8233 22.6931 80.5244 23.0695 80.3205 23.497C80.1167 23.9246 80.0131 24.3921 80.0176 24.8648C80.0008 25.3446 80.135 25.8177 80.4017 26.2189C80.6621 26.5874 81.0044 26.8921 81.4023 27.1096C81.8285 27.3441 82.2793 27.5319 82.7466 27.6699C83.2325 27.8161 83.7069 27.9415 84.1793 28.0497C84.7593 28.1668 85.3289 28.3294 85.8827 28.5359C86.0633 28.5993 86.2176 28.7198 86.3218 28.8788C86.4259 29.0378 86.4741 29.2264 86.4589 29.4153C86.4559 29.569 86.4181 29.72 86.3483 29.8574C86.2785 29.9948 86.1785 30.115 86.0556 30.2091C85.7848 30.4427 85.345 30.5605 84.7516 30.5605C84.2292 30.5836 83.7143 30.4317 83.2901 30.1293C82.9404 29.8801 82.6957 29.5124 82.6026 29.0962L82.5911 29.0392H79.6201L79.6297 29.119C79.709 29.8303 79.9884 30.5054 80.4363 31.0675C80.9107 31.6469 81.5249 32.0989 82.2223 32.3818C83.0395 32.7104 83.9157 32.8713 84.7977 32.8547C85.6447 32.8734 86.4862 32.7155 87.2674 32.3913C87.9165 32.1219 88.4752 31.6761 88.8786 31.1055C89.2507 30.5632 89.4396 29.9183 89.4183 29.2633C89.4183 28.4808 89.2262 27.8693 88.8287 27.4439C88.4032 26.9917 87.8667 26.656 87.2712 26.4696Z" fill="#1B2022"/>
<path d="M104.792 21.3912C104.02 21.3849 103.258 21.5668 102.574 21.9211C101.954 22.2382 101.422 22.6981 101.02 23.2619C100.298 22.0217 99.0996 21.3912 97.4326 21.3912C96.7219 21.3753 96.0185 21.5366 95.3874 21.8603C94.8691 22.1351 94.4191 22.5205 94.0699 22.9884L93.9931 22.5326C93.9521 22.2849 93.8233 22.0596 93.6298 21.8972C93.4363 21.7347 93.1907 21.6456 92.9368 21.6457H91.2334V32.5718H94.1909V26.9388C94.1909 25.9759 94.4175 25.2162 94.8669 24.6806C95.0778 24.4226 95.3461 24.2162 95.6509 24.0775C95.9557 23.9388 96.2888 23.8716 96.6241 23.8811C97.3577 23.8811 97.907 24.1204 98.2565 24.5914C98.606 25.0624 98.7923 25.7708 98.7923 26.6805V32.568H101.748V26.9388C101.748 25.9759 101.976 25.2162 102.424 24.6806C102.639 24.4212 102.911 24.2142 103.22 24.0756C103.528 23.9369 103.865 23.8704 104.204 23.8811C104.922 23.8811 105.46 24.1203 105.804 24.5895C106.148 25.0586 106.328 25.7708 106.328 26.6786V32.5661H109.286V26.4184C109.286 24.787 108.902 23.5278 108.124 22.6789C107.346 21.8299 106.228 21.3912 104.792 21.3912Z" fill="#1B2022"/>
<path d="M120.1 22.5612C119.195 21.7863 117.945 21.3913 116.382 21.3913C115.529 21.379 114.683 21.5387 113.895 21.8604C113.183 22.1553 112.558 22.6223 112.076 23.2183C111.602 23.8198 111.318 24.5467 111.26 25.3074V25.3834H114.141L114.152 25.3264C114.191 25.0936 114.28 24.8716 114.413 24.6752C114.545 24.4787 114.718 24.3123 114.92 24.1869C115.357 23.9208 115.863 23.785 116.376 23.7957C116.932 23.7787 117.477 23.9577 117.912 24.3008C118.318 24.6332 118.523 25.1631 118.523 25.8753V26.0652H115.815C114.223 26.0652 113.011 26.3843 112.211 27.0148C111.824 27.3059 111.513 27.6832 111.302 28.1159C111.091 28.5485 110.986 29.0244 110.997 29.5046C110.992 30.0898 111.147 30.6653 111.446 31.1702C111.773 31.6985 112.25 32.1199 112.817 32.3819C113.552 32.7086 114.352 32.8639 115.157 32.8358C116.074 32.8358 116.837 32.6459 117.425 32.2661C117.94 31.9349 118.374 31.4944 118.696 30.9765L118.782 31.5463C118.826 31.8325 118.971 32.0939 119.193 32.2828C119.415 32.4717 119.698 32.5756 119.99 32.5756H121.467V25.8734C121.463 24.4547 121 23.3398 120.1 22.5612ZM117.613 29.761C117.183 30.2624 116.568 30.5207 115.788 30.5207C115.353 30.5408 114.922 30.4238 114.557 30.1865C114.409 30.0831 114.29 29.9444 114.211 29.7834C114.132 29.6224 114.095 29.4442 114.104 29.2653C114.102 29.0853 114.143 28.9073 114.222 28.7452C114.301 28.5831 114.417 28.4413 114.561 28.3309C114.868 28.0764 115.393 27.9511 116.119 27.9511H118.423C118.323 28.6157 118.043 29.2412 117.613 29.761Z" fill="#1B2022"/>
<path d="M134.298 21.6533H131.342V32.5737H134.298V21.6533Z" fill="#1B2022"/>
<path d="M132.821 16.9756C132.34 16.9585 131.87 17.1243 131.509 17.439C131.34 17.5886 131.206 17.7727 131.116 17.9786C131.025 18.1845 130.981 18.4073 130.987 18.6317C130.982 18.8571 131.025 19.081 131.114 19.2886C131.203 19.4962 131.336 19.6827 131.503 19.8358C131.87 20.1425 132.335 20.3108 132.816 20.3108C133.297 20.3108 133.762 20.1425 134.129 19.8358C134.297 19.6831 134.43 19.4967 134.519 19.2891C134.609 19.0814 134.652 18.8573 134.647 18.6317C134.653 18.4073 134.61 18.1843 134.521 17.9781C134.431 17.7718 134.297 17.5873 134.129 17.4371C133.768 17.124 133.3 16.9589 132.821 16.9756Z" fill="#1B2022"/>
<path d="M144.146 28.6974C144.025 29.1852 143.726 29.6118 143.307 29.8958C142.867 30.1836 142.348 30.3313 141.82 30.3193C141.458 30.3226 141.098 30.2486 140.767 30.1025C140.436 29.9563 140.14 29.7414 139.9 29.4722C139.372 28.9025 139.105 28.1143 139.105 27.1077C139.105 26.1012 139.372 25.3092 139.9 24.7451C140.326 24.2867 140.903 23.9932 141.528 23.9174C142.153 23.8415 142.785 23.9882 143.311 24.3311C143.725 24.6156 144.023 25.0373 144.15 25.52L144.163 25.5713H147.273L147.255 25.4858C147.036 24.2913 146.377 23.2194 145.406 22.4775C144.446 21.7558 143.247 21.3874 141.845 21.3874C140.805 21.3672 139.778 21.6181 138.867 22.1147C138.012 22.5921 137.306 23.2924 136.825 24.1393C136.336 25.0542 136.08 26.0736 136.08 27.1087C136.08 28.1437 136.336 29.1631 136.825 30.0781C137.302 30.9291 138.006 31.6341 138.861 32.1159C139.772 32.6121 140.799 32.8629 141.84 32.8433C143.242 32.8433 144.44 32.4635 145.4 31.719C146.357 30.979 147.014 29.9235 147.25 28.7448L147.269 28.6594H144.158L144.146 28.6974Z" fill="#1B2022"/>
<path d="M156.421 17.2207H153.464V32.5719H163.231V30.2568H156.421V17.2207Z" fill="#1B2022"/>
<path d="M186.451 22.1414C185.615 21.6337 184.65 21.3703 183.669 21.3817C182.735 21.3817 181.965 21.5717 181.378 21.9363C180.891 22.2344 180.456 22.6098 180.093 23.0473V17.1997H177.137V32.5718H178.806C179.082 32.5714 179.349 32.4766 179.562 32.3035C179.775 32.1304 179.922 31.8897 179.976 31.6222L180.066 31.1911C180.441 31.687 180.929 32.0879 181.491 32.361C182.173 32.6822 182.921 32.8416 183.676 32.8263C184.655 32.8409 185.619 32.585 186.459 32.0875C187.275 31.594 187.944 30.8946 188.397 30.0611C188.882 29.1584 189.127 28.1488 189.109 27.1268C189.126 26.1013 188.881 25.0883 188.397 24.1811C187.942 23.3435 187.27 22.6398 186.451 22.1414ZM185.242 29.3888C184.961 29.6734 184.623 29.8974 184.25 30.0468C183.877 30.1962 183.477 30.2676 183.075 30.2567C182.67 30.2699 182.267 30.1984 181.891 30.0469C181.516 29.8953 181.177 29.6672 180.897 29.3774C180.35 28.747 180.049 27.9436 180.049 27.1126C180.049 26.2816 180.35 25.4781 180.897 24.8478C181.476 24.2822 182.258 23.9659 183.072 23.9681C183.886 23.9702 184.666 24.2905 185.242 24.8592C185.529 25.1646 185.753 25.5231 185.9 25.9142C186.047 26.3052 186.115 26.7212 186.1 27.1382C186.115 27.5509 186.047 27.9625 185.9 28.349C185.753 28.7354 185.529 29.0889 185.242 29.3888Z" fill="#1B2022"/>
<path d="M199.405 27.423C198.977 26.9798 198.44 26.6528 197.848 26.4734C197.208 26.2625 196.503 26.0688 195.735 25.9036C195.16 25.7842 194.598 25.6106 194.057 25.3851C193.655 25.2085 193.461 24.9806 193.461 24.69C193.463 24.5493 193.5 24.4112 193.569 24.2884C193.639 24.1657 193.738 24.0621 193.859 23.9873C194.212 23.7736 194.623 23.6721 195.036 23.6967C196.062 23.6967 196.634 24.0766 196.789 24.8362L196.801 24.8932H199.601L199.589 24.8135C199.54 24.3238 199.391 23.8489 199.153 23.4168C198.915 22.9846 198.592 22.6039 198.203 22.297C197.435 21.6969 196.373 21.3911 195.073 21.3911C193.669 21.3911 192.563 21.7273 191.785 22.3863C191.413 22.6835 191.114 23.0598 190.91 23.4873C190.705 23.9149 190.601 24.3825 190.606 24.8552C190.59 25.335 190.724 25.8078 190.99 26.2094C191.251 26.5779 191.594 26.8826 191.992 27.1001C192.418 27.3356 192.869 27.5235 193.336 27.6604C193.822 27.8066 194.297 27.9319 194.769 28.0402C195.349 28.1505 195.92 28.3068 196.474 28.5074C196.655 28.5708 196.809 28.6913 196.914 28.8503C197.018 29.0093 197.066 29.1979 197.051 29.3867C197.048 29.5405 197.011 29.6918 196.941 29.8293C196.871 29.9667 196.771 30.0868 196.647 30.1806C196.377 30.4142 195.939 30.5319 195.343 30.5319C194.821 30.5545 194.306 30.4026 193.882 30.1008C193.533 29.851 193.288 29.4835 193.194 29.0677L193.183 29.0107H190.21V29.0905C190.289 29.8016 190.567 30.4768 191.015 31.039C191.49 31.6176 192.104 32.0694 192.801 32.3533C193.618 32.6819 194.495 32.8428 195.378 32.8262C196.224 32.8449 197.065 32.687 197.846 32.3628C198.495 32.0934 199.055 31.6476 199.459 31.077C199.83 30.5343 200.019 29.8897 199.998 29.2348C199.995 28.4599 199.795 27.8484 199.405 27.423Z" fill="#1B2022"/>
<path d="M173.59 22.5612C172.688 21.7863 171.437 21.3913 169.874 21.3913C169.018 21.3788 168.168 21.5397 167.378 21.8642C166.666 22.1592 166.041 22.6261 165.559 23.2221C165.085 23.8239 164.8 24.5505 164.741 25.3112V25.3872H167.621L167.633 25.3302C167.672 25.0974 167.761 24.8754 167.893 24.679C168.026 24.4826 168.199 24.3161 168.401 24.1907C168.838 23.9246 169.344 23.7888 169.857 23.7995C170.413 23.7818 170.958 23.9609 171.393 24.3047C171.8 24.637 172.006 25.1669 172.006 25.8791V26.069H169.317C167.725 26.069 166.513 26.3881 165.712 27.0186C165.326 27.3097 165.015 27.687 164.804 28.1197C164.593 28.5524 164.488 29.0282 164.499 29.5085C164.494 30.0936 164.649 30.6691 164.948 31.1741C165.275 31.7018 165.751 32.1231 166.317 32.3857C167.052 32.712 167.852 32.8673 168.657 32.8397C169.575 32.8397 170.339 32.6497 170.927 32.2699C171.441 31.9398 171.875 31.5014 172.198 30.986L172.284 31.5558C172.328 31.842 172.473 32.1034 172.695 32.2923C172.917 32.4812 173.2 32.5852 173.492 32.5852H174.965V25.8734C174.965 24.4547 174.497 23.3399 173.59 22.5612ZM171.105 29.7611C170.675 30.2624 170.06 30.5207 169.281 30.5207C168.845 30.5409 168.414 30.4238 168.05 30.1865C167.902 30.0832 167.782 29.9446 167.703 29.7836C167.623 29.6226 167.586 29.4444 167.595 29.2654C167.593 29.0851 167.633 28.907 167.713 28.7448C167.793 28.5827 167.909 28.441 168.054 28.331C168.361 28.0765 168.885 27.9511 169.611 27.9511H171.916C171.815 28.6155 171.535 29.2408 171.105 29.7611Z" fill="#1B2022"/>
<path d="M128.264 30.0612C127.728 30.0612 127.348 29.9681 127.137 29.7858C126.925 29.6035 126.82 29.2616 126.82 28.764V24.1205H129.764V21.6515H126.82V18.5103H124.2V21.6534H121.354L122.958 24.1224H123.864V28.745C123.864 30.1656 124.219 31.1703 124.922 31.7325C125.625 32.2946 126.57 32.5719 127.722 32.5719H129.944L128.298 30.0612H128.264Z" fill="#1B2022"/>
<path d="M18.5096 0.699463L3.74316 25.9911H33.276L18.5096 0.699463Z" fill="#AD8AFF"/>
<path d="M18.5096 43.3003L3.74316 25.991H33.276L18.5096 43.3003Z" fill="#825AFF"/>
<path d="M3.74297 25.991L0 32.2754L18.5094 43.3003L3.74297 25.991Z" fill="#584BFF"/>
<path d="M33.2757 25.991L37.0187 32.2754L18.5093 43.3003L33.2757 25.991Z" fill="#AD8AFF"/>
<path opacity="0.39" d="M8.34266 18.1133L3.74316 25.9911H12.9422L8.34266 18.1133Z" fill="white"/>
</svg>
