<?xml version="1.0" standalone="no"?>
<!DOCTYPE svg PUBLIC "-//W3C//DTD SVG 20010904//EN"
 "http://www.w3.org/TR/2001/REC-SVG-20010904/DTD/svg10.dtd">
<svg version="1.0" xmlns="http://www.w3.org/2000/svg"
 width="472.000000pt" height="472.000000pt" viewBox="0 0 472.000000 472.000000"
 preserveAspectRatio="xMidYMid meet">
<metadata>
Created by potrace 1.14, written by Peter Selinger 2001-2017
</metadata>
<g transform="translate(0.000000,472.000000) scale(0.100000,-0.100000)"
fill="#000000" stroke="none">
<path d="M2261 4553 c-50 -87 -98 -169 -106 -183 -8 -14 -100 -173 -205 -355
-105 -181 -194 -337 -199 -345 -30 -49 -156 -269 -165 -287 -6 -13 -14 -23
-18 -23 -5 0 -8 -4 -8 -9 0 -5 -23 -49 -51 -98 -28 -48 -61 -104 -72 -123 -10
-19 -57 -99 -103 -178 -46 -79 -84 -145 -84 -148 0 -3 -9 -17 -19 -32 -19 -28
-411 -703 -465 -802 -16 -30 -33 -56 -38 -58 -4 -2 -8 -8 -8 -12 0 -8 -47 -91
-120 -210 -5 -8 -64 -109 -131 -223 -67 -114 -126 -210 -131 -213 -29 -18 3
-46 175 -147 100 -60 549 -329 997 -598 448 -270 822 -494 831 -499 20 -11
-21 -34 534 300 259 155 490 294 515 308 25 14 56 33 70 42 22 16 439 266 515
310 55 31 240 143 265 160 14 9 51 31 82 49 32 18 60 36 63 41 3 5 -13 39 -36
77 -23 37 -50 83 -61 100 -10 18 -26 48 -37 65 -10 18 -45 78 -78 133 -33 55
-108 183 -167 285 -60 102 -115 196 -124 210 -9 14 -15 28 -14 33 1 4 -2 7 -8
7 -5 0 -10 4 -10 9 0 5 -26 53 -58 108 -32 54 -70 118 -84 143 -37 65 -133
232 -191 330 -27 47 -59 101 -70 120 -38 68 -420 725 -438 755 -11 17 -22 37
-26 45 -4 8 -44 78 -89 155 -94 162 -295 509 -332 575 -14 25 -44 77 -67 115
-23 39 -61 105 -86 147 -24 43 -47 78 -50 78 -4 0 -48 -71 -98 -157z"/>
</g>
</svg>
